<?xml version="1.0" encoding="utf-8"?>
<!DOCTYPE svg PUBLIC "-//W3C//DTD SVG 1.1//EN" "http://www.w3.org/Graphics/SVG/1.1/DTD/svg11.dtd">
<svg version="1.1" id="Calque_1" xmlns="http://www.w3.org/2000/svg" xmlns:xlink="http://www.w3.org/1999/xlink" x="0px" y="0px"
	 viewBox="0 45.9 595.3 603" enable-background="new 0 45.9 595.3 603" xml:space="preserve">
<path fill="#FFFFFF" d="M581.1,515.4l-90.9-91c-9.2-9-21.6-13.9-34.4-13.7c-13.7,0-26.9,5.3-36.7,14.9l-44.2,44.2l-7.1-3.9
	c-40.3-20.8-77.2-47.4-109.5-79.2c-31.9-32.4-58.7-69.5-79.5-109.9l-3.6-6.7l44.3-44.2c19.9-19.4,20.5-51.2,1.2-71.3l-91.1-90.9
	c-9.2-9-21.6-14-34.4-13.8c-13.8-0.1-27,5.3-36.8,15L35.9,87.5c-0.5,0.5-1,1.1-1.4,1.8l-1.8,3c-8.8,11.4-16,24.1-21.3,37.5
	c-4.8,12.4-8,25.3-9.6,38.5C-10.3,268.9,35.5,360.7,159.8,485c147.1,147.1,271.1,158.5,305.6,158.5c3.8,0,7.6-0.1,11.3-0.4
	c13.2-1.6,26.2-4.9,38.6-9.8c13.6-5.3,26.3-12.5,37.8-21.5l5.1-4l0.8-0.7l21-20.6C599.9,567.2,600.4,535.4,581.1,515.4z
	 M566.8,573.3l-20.5,20.1l-4.7,3.7c-10.1,7.8-21.2,14.2-33.1,18.8c-10.9,4.3-22.3,7.2-33.9,8.6c-0.3,0-3.5,0.4-9.3,0.4
	c-32.7,0-150.1-11-292.3-153C53.4,352,9.1,264.8,20.5,170.5c1.4-11.6,4.2-22.9,8.4-33.8c4.6-12,11-23.2,18.8-33.3l0.6-0.9L50,100
	l21.6-21.7c6.3-6.2,14.7-9.6,23.5-9.6c7.9-0.2,15.5,2.8,21.1,8.3l90.9,90.9c11.9,12.7,11.4,32.7-1.2,44.7L156.4,262
	c-3,3-3.6,7.6-1.6,11.3l7.3,12.5c21.7,42.1,49.6,80.8,82.8,114.5c33.5,32.9,71.9,60.6,113.7,82.1l13.3,7.4c3.7,1.9,8.3,1.2,11.1-1.9
	l49.2-49.2c6.3-6.1,14.7-9.5,23.5-9.4c7.9-0.1,15.6,3,21.2,8.6l90.9,90.9l0,0c5.7,5.7,8.9,13.5,8.7,21.6
	C576.4,559,572.9,567.2,566.8,573.3L566.8,573.3z"/>
</svg>
